<?xml version="1.0" encoding="utf-8"?>
<!-- Generator: Adobe Illustrator 24.3.0, SVG Export Plug-In . SVG Version: 6.00 Build 0)  -->
<svg version="1.1" id="Layer_1" xmlns="http://www.w3.org/2000/svg" xmlns:xlink="http://www.w3.org/1999/xlink" x="0px" y="0px"
	 viewBox="0 0 1280 1363.08" style="enable-background:new 0 0 1280 1363.08;" xml:space="preserve">
<style type="text/css">
	.st0{fill:#CCC2B8;}
</style>
<path class="st0" d="M0,651.92c17.33-42.94,48.7-100.1,104.97-119.34c78.53-26.85,124.94,41.27,221.99,26.95
	c95.48-14.09,87.69-86.93,213.01-139.87c108.72-45.92,142.73-3,250.22-56.46c23.09-11.48,90.42-45.85,146.28-116.77
	c60.6-76.94,58.63-134.59,128.32-193.76c34.26-29.09,69.19-44.41,92.39-52.66c40.94,0,81.87,0,122.81,0c0,239.12,0,865.28,0,1104.4
	c-426.67,0-853.33,0.01-1280,0.01C0,1082.59,0,673.73,0,651.92z"/>
</svg>
