<?xml version="1.0" encoding="utf-8"?>
<!-- Generator: Adobe Illustrator 24.3.0, SVG Export Plug-In . SVG Version: 6.00 Build 0)  -->
<svg version="1.1" id="Layer_1" xmlns="http://www.w3.org/2000/svg" xmlns:xlink="http://www.w3.org/1999/xlink" x="0px" y="0px"
	 viewBox="0 0 1774.82 1114.46" style="enable-background:new 0 0 1774.82 1114.46;" xml:space="preserve">
<style type="text/css">
	.st0{fill:#CCC2B8;}
</style>
<path class="st0" d="M0,719c25.23-23.61,65.2-55.62,121-80.05c72.88-31.9,139.62-36.36,209-35.97
	c233.08,1.32,270.63,56.18,392.45,40.46c142.9-18.44,240.23-113.16,290.27-161.85c163.49-159.1,133.65-305.75,297.24-413.63
	C1375.58,24.7,1442,7.66,1486.8,0c96.01,0,192.01,0,288.02,0c0,371.49,0,742.97,0,1114.46c-591.61,0-1183.21,0-1774.82,0
	C0,982.64,0,850.82,0,719z"/>
</svg>
